<svg width="59" height="60" viewBox="0 0 59 60" fill="none" xmlns="http://www.w3.org/2000/svg">
<g id="Vector">
<path id="Vector_2" d="M29.9995 24.5454V36.1636H46.1449C45.4359 39.9 43.3084 43.0637 40.1176 45.191L49.8539 52.7456C55.5266 47.5094 58.7994 39.8184 58.7994 30.6821C58.7994 28.5548 58.6085 26.5092 58.2538 24.5457L29.9995 24.5454Z" fill="#4285F4"/>
<path id="Vector_3" d="M13.1867 35.71L10.9908 37.3909L3.2179 43.4454C8.15425 53.2362 18.2717 59.9999 29.9989 59.9999C38.0987 59.9999 44.8895 57.3272 49.8532 52.7455L40.1169 45.1909C37.4442 46.9908 34.0351 48.0819 29.9989 48.0819C22.1989 48.0819 15.5718 42.8183 13.1989 35.7273L13.1867 35.71Z" fill="#34A853"/>
<path id="Vector_4" d="M3.21795 16.5544C1.1726 20.5906 0 25.1453 0 29.9997C0 34.8542 1.1726 39.4088 3.21795 43.445C3.21795 43.4721 13.1999 35.6995 13.1999 35.6995C12.5999 33.8995 12.2453 31.9906 12.2453 29.9994C12.2453 28.0082 12.5999 26.0993 13.1999 24.2993L3.21795 16.5544Z" fill="#FBBC05"/>
<path id="Vector_5" d="M29.9995 11.9454C34.4177 11.9454 38.3449 13.4727 41.4813 16.4182L50.0721 7.82737C44.863 2.97291 38.0996 0 29.9995 0C18.2723 0 8.15425 6.73635 3.2179 16.5546L13.1996 24.3C15.5722 17.209 22.1995 11.9454 29.9995 11.9454Z" fill="#EA4335"/>
</g>
</svg>
