<svg width="60" height="60" viewBox="0 0 60 60" fill="none" xmlns="http://www.w3.org/2000/svg">
<g id="Social Icons" clip-path="url(#clip0_37_284)">
<path id="Vector" d="M58.805 15.4635C58.4658 14.1871 57.7972 13.0221 56.8663 12.0852C55.9354 11.1483 54.7747 10.4723 53.5004 10.1249C48.8095 8.86353 30.0595 8.86353 30.0595 8.86353C30.0595 8.86353 11.3095 8.86353 6.6186 10.1249C5.34433 10.4723 4.18366 11.1483 3.25273 12.0852C2.3218 13.0221 1.65327 14.1871 1.31405 15.4635C0.0595094 20.1749 0.0595093 29.9999 0.0595093 29.9999C0.0595093 29.9999 0.0595094 39.8249 1.31405 44.5363C1.65327 45.8127 2.3218 46.9777 3.25273 47.9146C4.18366 48.8515 5.34433 49.5275 6.6186 49.8749C11.3095 51.1362 30.0595 51.1362 30.0595 51.1362C30.0595 51.1362 48.8095 51.1362 53.5004 49.8749C54.7747 49.5275 55.9354 48.8515 56.8663 47.9146C57.7972 46.9777 58.4658 45.8127 58.805 44.5363C60.0595 39.8249 60.0595 29.9999 60.0595 29.9999C60.0595 29.9999 60.0595 20.1749 58.805 15.4635Z" fill="#FF0302"/>
<path id="Vector_2" d="M23.9232 38.9218V21.0786L39.605 30.0002L23.9232 38.9218Z" fill="#FEFEFE"/>
</g>
<defs>
<clipPath id="clip0_37_284">
<rect width="60" height="60" fill="white"/>
</clipPath>
</defs>
</svg>
